# xmcd
#
# Track frame offsets:
#	150
#	15337
#	29021
#	46812
#	60707
#	77896
#	87026
#	100634
#	120574
#	146033
#	151736
#	169815
#	181716
#
# Disc length: 2597 seconds
#
# Revision: 2
# Processed by: cddbd v1.5.2PL0 Copyright (c) Steve Scherf et al.
# Submitted via: EZCDAudioConverter 7.0.6.1
#
DISCID=950a230d
DTITLE=THE Crazy World of Arthur Brown - THE Crazy World of Arthur Brown 2/2
DYEAR=1968
DGENRE=
TTITLE0=Devil's Grip
TTITLE1=Give Him A Flower
TTITLE2=Music Man [Stereo Mix]
TTITLE3=Fire [First Version]
TTITLE4=Prelude - Nightmare [Alternate Mono Mix]
TTITLE5=Fanfare - Fire Poem [Alternate Mono Mix]
TTITLE6=Fire [Alternate Mono Mix]
TTITLE7=Come and Buy [Alternate Mono Mix]
TTITLE8=Time - Confusion [Alternate Mono Mix]
TTITLE9=Interview With Brian Matthew [BBC Radio One Session]
TTITLE10=Fire Poem - Fire [BBC Radio One Session]
TTITLE11=Come and Buy [BBC Radio One Session]
TTITLE12=Nightmare [From The Film "The Committee"]
EXTD=
EXTT0=
EXTT1=
EXTT2=
EXTT3=
EXTT4=
EXTT5=
EXTT6=
EXTT7=
EXTT8=
EXTT9=
EXTT10=
EXTT11=
EXTT12=
PLAYORDER=
